<svg xmlns="http://www.w3.org/2000/svg" xmlns:xlink="http://www.w3.org/1999/xlink" width="60" zoomAndPan="magnify" viewBox="0 0 45 44.999999" height="60" preserveAspectRatio="xMidYMid meet" version="1.0"><defs><clipPath id="e627f93ff8"><path d="M 31 20 L 41.898438 20 L 41.898438 33 L 31 33 Z M 31 20 " clip-rule="nonzero"/></clipPath><clipPath id="97d70d8c5b"><path d="M 2.898438 34 L 41 34 L 41 45 L 2.898438 45 Z M 2.898438 34 " clip-rule="nonzero"/></clipPath></defs><path fill="#472200" d="M 7.90625 21.382812 C 7.914062 31.324219 14.144531 39.378906 21.828125 39.378906 C 29.515625 39.378906 35.75 31.3125 35.75 21.363281 L 33.425781 22.316406 C 32.878906 30.941406 27.382812 37.71875 20.683594 37.71875 C 13.746094 37.71875 8.097656 30.449219 7.90625 21.382812 Z M 7.90625 21.382812 " fill-opacity="1" fill-rule="evenodd"/><path fill="#472200" d="M 22.261719 36.25 C 27.375 35.101562 31.269531 29.519531 31.753906 22.535156 C 31.265625 22.640625 30.742188 22.742188 30.1875 22.835938 C 29.722656 29.582031 26.511719 34.96875 22.261719 36.25 Z M 22.261719 36.25 " fill-opacity="1" fill-rule="evenodd"/><path fill="#472200" d="M 16.902344 18.285156 C 11.644531 18.710938 7.90625 19.792969 7.90625 21.0625 C 7.90625 22.707031 14.152344 24.035156 21.863281 24.035156 C 29.097656 24.035156 35.046875 22.863281 35.75 21.363281 C 33.382812 22.050781 29.476562 22.679688 23.367188 22.679688 C 17.253906 22.679688 11.039062 21.6875 11.039062 20.460938 C 11.039062 19.738281 13.976562 19.074219 17.078125 18.636719 C 18.4375 18.445312 21.085938 18.179688 23.835938 18.121094 C 21.527344 18.050781 19.207031 18.097656 16.902344 18.285156 Z M 16.902344 18.285156 " fill-opacity="1" fill-rule="evenodd"/><g clip-path="url(#e627f93ff8)"><path fill="#472200" d="M 31.402344 32.804688 L 33.089844 30.75 C 38.273438 30.421875 39.929688 26.894531 39.28125 24.734375 C 38.824219 23.210938 37.101562 22.40625 35.175781 23.691406 L 34.597656 21.980469 C 37.554688 20.007812 40.195312 21.238281 40.898438 23.578125 C 41.894531 26.894531 39.351562 32.300781 31.402344 32.804688 Z M 31.402344 32.804688 " fill-opacity="1" fill-rule="evenodd"/></g><path fill="#472200" d="M 25.191406 9.597656 C 27.464844 11.726562 16.546875 14.035156 14.382812 17.515625 C 13.382812 19.128906 13.53125 20.839844 16.210938 21.488281 C 15.894531 20.332031 16.179688 19.542969 16.875 18.832031 C 18.851562 16.800781 29.738281 12.148438 25.191406 9.597656 Z M 25.191406 9.597656 " fill-opacity="1" fill-rule="evenodd"/><path fill="#472200" d="M 27.933594 12.433594 C 28.761719 10.707031 27.328125 8.847656 24.835938 7.195312 C 24.769531 7.152344 24.703125 7.109375 24.636719 7.066406 C 21.835938 5.265625 21.519531 1.980469 21.886719 0.0390625 C 22.25 7.40625 31.570312 6.246094 31.574219 10.125 C 31.578125 12.164062 28.382812 15.574219 23.113281 17.003906 C 25.554688 15.078125 27.121094 14.121094 27.933594 12.433594 Z M 27.933594 12.433594 " fill-opacity="1" fill-rule="evenodd"/><g clip-path="url(#97d70d8c5b)"><path fill="#472200" d="M 11.027344 35.117188 C 7.253906 36.0625 4.859375 37.472656 4.859375 39.042969 C 4.859375 41.890625 12.714844 44.203125 22.410156 44.203125 C 32.101562 44.203125 39.957031 41.890625 39.957031 39.042969 C 39.957031 38.328125 39.792969 37.648438 39.3125 37.027344 C 40.222656 37.703125 40.722656 38.441406 40.722656 39.214844 C 40.722656 42.390625 32.261719 44.96875 21.828125 44.96875 C 11.394531 44.96875 2.984375 42.390625 2.933594 39.214844 C 2.902344 37.320312 5.878906 35.640625 10.523438 34.59375 C 10.683594 34.773438 10.851562 34.945312 11.027344 35.117188 Z M 13.148438 36.792969 C 12.28125 37.25 11.789062 37.78125 11.796875 38.351562 C 11.8125 39.15625 12.816406 39.886719 14.460938 40.4375 C 16.328125 41.074219 19.085938 41.476562 22.164062 41.476562 C 27.789062 41.476562 32.347656 40.136719 32.347656 38.480469 C 32.347656 38.066406 32.25 37.671875 31.972656 37.3125 C 32.5 37.703125 32.789062 38.132812 32.789062 38.582031 C 32.789062 40.425781 27.882812 41.917969 21.828125 41.917969 C 15.773438 41.917969 10.894531 40.425781 10.867188 38.582031 C 10.855469 37.855469 11.609375 37.179688 12.902344 36.632812 C 12.984375 36.6875 13.066406 36.742188 13.148438 36.792969 Z M 13.148438 36.792969 " fill-opacity="1" fill-rule="evenodd"/></g></svg>