<svg xmlns="http://www.w3.org/2000/svg" xmlns:xlink="http://www.w3.org/1999/xlink" width="60" zoomAndPan="magnify" viewBox="0 0 45 44.999999" height="60" preserveAspectRatio="xMidYMid meet" version="1.0"><defs><clipPath id="cbc2f1cd75"><path d="M 0 4 L 45 4 L 45 43.511719 L 0 43.511719 Z M 0 4 " clip-rule="nonzero"/></clipPath></defs><g clip-path="url(#cbc2f1cd75)"><path fill="#472200" d="M 22.5 4.882812 L 39.828125 11.472656 L 21.359375 18.121094 L 4.90625 11.574219 Z M 2.574219 12.894531 L 19.863281 19.773438 L 17.457031 24.210938 L 0.015625 17.496094 Z M 2.917969 21.113281 L 17.222656 26.488281 C 17.347656 26.539062 17.644531 26.558594 17.765625 26.558594 C 18.140625 26.558594 18.878906 26.359375 19.066406 26.015625 L 20.902344 23.351562 L 20.902344 43.464844 L 2.917969 36.589844 Z M 40.386719 36.558594 L 22.402344 43.519531 L 22.402344 22.570312 L 25.144531 26.523438 C 25.34375 26.808594 25.664062 26.96875 26 26.96875 C 26.125 26.96875 25.847656 26.949219 25.96875 26.902344 L 40.382812 21.195312 Z M 26.382812 24.652344 L 22.980469 19.757812 L 42.367188 12.785156 L 44.984375 17.496094 Z M 26.382812 24.652344 " fill-opacity="1" fill-rule="nonzero"/></g></svg>